<svg xmlns="http://www.w3.org/2000/svg" xmlns:xlink="http://www.w3.org/1999/xlink" viewBox="0 0 130.39 144.69"><defs><style>.cls-1,.cls-7,.cls-8{fill:none;}.cls-2{clip-path:url(#clip-path);}.cls-3{fill:#242650;}.cls-4{fill:#fdeceb;}.cls-5{clip-path:url(#clip-path-3);}.cls-6{fill:#f4cfce;}.cls-7{stroke:#fce2e1;stroke-miterlimit:10;}.cls-8{stroke:#242650;stroke-linecap:round;stroke-linejoin:round;stroke-width:1.2px;}.cls-9{fill:#fff;}</style><clipPath id="clip-path" transform="translate(-2.84 -2.83)"><rect class="cls-1" width="136.06" height="150.36"/></clipPath><clipPath id="clip-path-3" transform="translate(-2.84 -2.83)"><path class="cls-1" d="M21.43,58.74A46.61,46.61,0,1,0,68,12.13a46.6,46.6,0,0,0-46.6,46.61"/></clipPath></defs><title>Asset 2</title><g id="Layer_2" data-name="Layer 2"><g id="Layer_1-2" data-name="Layer 1"><g class="cls-2"><g class="cls-2"><path class="cls-3" d="M9.21,147.53A4.75,4.75,0,0,1,7,147a3.1,3.1,0,0,1-1.38-1.44l0-.08-.37,1.76H2.84l3.74-17.73H8.91L7.46,136.3l0,0A5.65,5.65,0,0,1,9,135a5.16,5.16,0,0,1,2.61-.65,4.86,4.86,0,0,1,1.84.35,4,4,0,0,1,1.47,1,4.86,4.86,0,0,1,1,1.54,5.54,5.54,0,0,1,.35,2,9.84,9.84,0,0,1-.55,3.41,8,8,0,0,1-1.49,2.6A6.39,6.39,0,0,1,12,147a6.81,6.81,0,0,1-2.77.58M11,136.64a4.14,4.14,0,0,0-1.86.43,4.89,4.89,0,0,0-1.48,1.2,6,6,0,0,0-1,1.77,6.26,6.26,0,0,0-.35,2.13,3.3,3.3,0,0,0,.74,2.31,2.6,2.6,0,0,0,2.05.8,4.07,4.07,0,0,0,1.79-.4,4.46,4.46,0,0,0,1.49-1.14,5.76,5.76,0,0,0,1-1.79,6.88,6.88,0,0,0,.37-2.32,3.12,3.12,0,0,0-.73-2.19,2.6,2.6,0,0,0-2.06-.8" transform="translate(-2.84 -2.83)"/><path class="cls-3" d="M22.44,147.53a5.5,5.5,0,0,1-2-.37,4.92,4.92,0,0,1-1.63-1,4.63,4.63,0,0,1-1.11-1.61,5.33,5.33,0,0,1-.4-2.11,8.43,8.43,0,0,1,.61-3.27,7.49,7.49,0,0,1,1.67-2.53A7.72,7.72,0,0,1,22,135a7.64,7.64,0,0,1,3-.59,5.38,5.38,0,0,1,2,.38,4.88,4.88,0,0,1,2.7,2.7,5.44,5.44,0,0,1,.39,2.09,8.69,8.69,0,0,1-.51,3,7.42,7.42,0,0,1-7.17,5m2.16-10.89a4.11,4.11,0,0,0-1.86.44,4.94,4.94,0,0,0-1.54,1.2,6.09,6.09,0,0,0-1.06,1.78,6,6,0,0,0-.4,2.16,3.07,3.07,0,0,0,.81,2.21,3,3,0,0,0,2.31.85,4.19,4.19,0,0,0,1.95-.47,4.94,4.94,0,0,0,1.55-1.25,6,6,0,0,0,1-1.78,6.15,6.15,0,0,0,.36-2.08,3,3,0,0,0-.82-2.2,3,3,0,0,0-2.31-.86" transform="translate(-2.84 -2.83)"/><path class="cls-3" d="M42.57,147.53a3.23,3.23,0,0,1-.76-.1,1.72,1.72,0,0,1-.68-.33,1.55,1.55,0,0,1-.5-.62,2.12,2.12,0,0,1-.2-.95,4.87,4.87,0,0,1,.1-.82l1.09-5a4.91,4.91,0,0,0,.1-.54c0-.15,0-.3,0-.45a1.86,1.86,0,0,0-.61-1.55,2.68,2.68,0,0,0-1.78-.52,3.17,3.17,0,0,0-2.51,1.1,6.11,6.11,0,0,0-1.38,2.88l-1.39,6.57H31.72l2.66-12.46h2.35l-.28,1.33.06,0a3.77,3.77,0,0,1,1.35-1.17,4.82,4.82,0,0,1,2.17-.52,4.47,4.47,0,0,1,1.55.27,3.71,3.71,0,0,1,2.18,2.05,4.35,4.35,0,0,1,.32,1.71,6.31,6.31,0,0,1-.15,1.33l-1.16,5.38v0s.07.07.11.07a.1.1,0,0,0,.07,0l1.21-.89,1.28,1.8-1.12.83a2.83,2.83,0,0,1-1.76.61" transform="translate(-2.84 -2.83)"/><path class="cls-3" d="M48.9,135.11V131h2.27v4.11h3.49v2H51.17v7.21c0,.48.2.68.63.68H54v2h-3.1a1.91,1.91,0,0,1-2-2v-7.84H45.61v-2Z" transform="translate(-2.84 -2.83)"/><path class="cls-3" d="M62.28,134.77c3.19,0,5.24,1.86,5.24,4.71V147H65.3V145.1H65c-.51,1.06-1.74,2.2-4.18,2.2-2.66,0-4.38-1.45-4.38-3.58s1.47-3.32,4.52-3.61l4.38-.41v-.31c0-1.62-1.14-2.59-3.07-2.59a3.59,3.59,0,0,0-3.63,2.32l-2-.89a6,6,0,0,1,5.64-3.46m-1.12,10.64c2.79,0,4.14-1.67,4.14-3.72v-.2l-4.14.39c-1.38.12-2.46.53-2.46,1.74s.89,1.79,2.46,1.79" transform="translate(-2.84 -2.83)"/><polygon class="cls-3" points="74.29 136.84 79.64 144.13 76.9 144.13 72.65 138.25 70.2 140.28 70.2 144.13 67.93 144.13 67.93 127.19 70.2 127.19 70.2 137.28 70.5 137.28 76.4 132.27 79.73 132.27 74.29 136.84"/><path class="cls-3" d="M88.76,134.72a5.66,5.66,0,0,1,5.81,6v1.14H85.23a3.78,3.78,0,0,0,7.16,1.33l1.91,1.08a5.82,5.82,0,0,1-5.24,3,6.08,6.08,0,0,1-6.2-6.36,5.93,5.93,0,0,1,5.9-6.22M92.2,140a3.19,3.19,0,0,0-3.44-3.32A3.28,3.28,0,0,0,85.23,140Z" transform="translate(-2.84 -2.83)"/><path class="cls-3" d="M102.41,134.77a6.27,6.27,0,1,1-6.1,6.26,6,6,0,0,1,6.1-6.26m0,10.45c2.27,0,3.82-1.57,3.82-4.19s-1.55-4.18-3.82-4.18-3.82,1.57-3.82,4.18,1.55,4.19,3.82,4.19" transform="translate(-2.84 -2.83)"/><path class="cls-3" d="M119.92,147v-2h-.34a4,4,0,0,1-4,2.2c-2.49,0-4.62-1.64-4.62-4.91v-7.13h2.28v6.94a2.77,2.77,0,0,0,3,3.12c2.21,0,3.58-1.4,3.58-3.87v-6.19h2.28V147Z" transform="translate(-2.84 -2.83)"/><path class="cls-3" d="M127.47,135.11V131h2.28v4.11h3.48v2h-3.48v7.21c0,.48.19.68.62.68h2.18v2h-3.1a1.91,1.91,0,0,1-2-2v-7.84h-3.29v-2Z" transform="translate(-2.84 -2.83)"/><path class="cls-4" d="M12.63,58.74A55.41,55.41,0,1,0,68,3.33a55.4,55.4,0,0,0-55.4,55.41" transform="translate(-2.84 -2.83)"/><path class="cls-3" d="M41.33,77.55A.6.6,0,0,1,41,76.43L66.61,61.26a.59.59,0,0,1,.82.21.6.6,0,0,1-.21.82L41.63,77.46a.55.55,0,0,1-.3.09" transform="translate(-2.84 -2.83)"/><path class="cls-3" d="M63.55,56.08,37.72,70.48a8.23,8.23,0,0,0-3.36,10.86L21.58,88.92c.22.34.43.67.66,1l13.23-7.85a.59.59,0,0,0,.28-.36.62.62,0,0,0-.07-.46,7,7,0,0,1,2.63-9.72l25.83-14.4a.6.6,0,0,0-.59-1.05" transform="translate(-2.84 -2.83)"/><path class="cls-3" d="M70.52,36.93l45.32-5.15c-.22-.37-.43-.75-.66-1.13l-44.8,5.08a1.71,1.71,0,0,0,.19,3.4h.16l46.64-4.44c-.19-.39-.39-.77-.59-1.15l-46.16,4.4a.51.51,0,0,1-.55-.45.5.5,0,0,1,.45-.55" transform="translate(-2.84 -2.83)"/></g><g class="cls-5"><path class="cls-6" d="M59.64,109.76a.58.58,0,0,1-.42-.18,8.52,8.52,0,0,1,0-12,7.35,7.35,0,0,0,0-10.36,8.52,8.52,0,0,1,0-12,7.33,7.33,0,0,0,0-10.35,8.53,8.53,0,0,1,0-12.06,7.33,7.33,0,0,0,0-10.35,8.52,8.52,0,0,1,0-12,7.34,7.34,0,0,0,0-10.36,8.52,8.52,0,0,1,0-12,.6.6,0,0,1,.85.85,7.32,7.32,0,0,0,0,10.35,8.55,8.55,0,0,1,0,12.06,7.32,7.32,0,0,0,0,10.35,8.53,8.53,0,0,1,0,12.05,7.33,7.33,0,0,0,0,10.36,8.53,8.53,0,0,1,0,12,7.32,7.32,0,0,0,0,10.35,8.55,8.55,0,0,1,0,12.06,7.32,7.32,0,0,0,0,10.35.61.61,0,0,1-.43,1" transform="translate(-2.84 -2.83)"/><path class="cls-6" d="M63.15,109.76a.58.58,0,0,1-.42-.18,8.52,8.52,0,0,1,0-12,7.35,7.35,0,0,0,0-10.36,8.52,8.52,0,0,1,0-12,7.33,7.33,0,0,0,0-10.35,8.53,8.53,0,0,1,0-12.06,7.33,7.33,0,0,0,0-10.35,8.52,8.52,0,0,1,0-12,7.34,7.34,0,0,0,0-10.36,8.52,8.52,0,0,1,0-12,.6.6,0,1,1,.84.85,7.33,7.33,0,0,0,0,10.35,8.53,8.53,0,0,1,0,12.06,7.33,7.33,0,0,0,0,10.35,8.52,8.52,0,0,1,0,12.05,7.35,7.35,0,0,0,0,10.36,8.52,8.52,0,0,1,0,12,7.33,7.33,0,0,0,0,10.35,8.53,8.53,0,0,1,0,12.06,7.33,7.33,0,0,0,0,10.35.59.59,0,0,1,0,.85.58.58,0,0,1-.42.18" transform="translate(-2.84 -2.83)"/><path class="cls-6" d="M66.66,109.76a.61.61,0,0,1-.43-.18,8.53,8.53,0,0,1,0-12,7.33,7.33,0,0,0,0-10.36,8.53,8.53,0,0,1,0-12,7.32,7.32,0,0,0,0-10.35,8.55,8.55,0,0,1,0-12.06,7.32,7.32,0,0,0,0-10.35,8.53,8.53,0,0,1,0-12,7.32,7.32,0,0,0,0-10.36,8.53,8.53,0,0,1,0-12,.61.61,0,0,1,.85,0,.59.59,0,0,1,0,.85,7.33,7.33,0,0,0,0,10.35,8.53,8.53,0,0,1,0,12.06,7.33,7.33,0,0,0,0,10.35,8.52,8.52,0,0,1,0,12.05,7.35,7.35,0,0,0,0,10.36,8.52,8.52,0,0,1,0,12,7.33,7.33,0,0,0,0,10.35,8.53,8.53,0,0,1,0,12.06,7.33,7.33,0,0,0,0,10.35.59.59,0,0,1,0,.85.58.58,0,0,1-.42.18" transform="translate(-2.84 -2.83)"/><path class="cls-6" d="M70.17,109.76a.6.6,0,0,1-.43-.18,8.53,8.53,0,0,1,0-12,7.33,7.33,0,0,0,0-10.36,8.53,8.53,0,0,1,0-12,7.32,7.32,0,0,0,0-10.35,8.55,8.55,0,0,1,0-12.06,7.32,7.32,0,0,0,0-10.35,8.53,8.53,0,0,1,0-12,7.32,7.32,0,0,0,0-10.36,8.53,8.53,0,0,1,0-12,.6.6,0,0,1,.85.85,7.32,7.32,0,0,0,0,10.35,8.55,8.55,0,0,1,0,12.06,7.32,7.32,0,0,0,0,10.35,8.53,8.53,0,0,1,0,12.05,7.33,7.33,0,0,0,0,10.36,8.53,8.53,0,0,1,0,12,7.32,7.32,0,0,0,0,10.35,8.55,8.55,0,0,1,0,12.06,7.32,7.32,0,0,0,0,10.35.61.61,0,0,1,0,.85.59.59,0,0,1-.42.18" transform="translate(-2.84 -2.83)"/><path class="cls-6" d="M73.67,109.9a.59.59,0,0,1-.42-.18,8.53,8.53,0,0,1,0-12,7.33,7.33,0,0,0,0-10.36,8.53,8.53,0,0,1,0-12,7.32,7.32,0,0,0,0-10.35,8.55,8.55,0,0,1,0-12.06,7.32,7.32,0,0,0,0-10.35,8.53,8.53,0,0,1,0-12,7.32,7.32,0,0,0,0-10.36,8.53,8.53,0,0,1,0-12,.6.6,0,1,1,.85.85,7.32,7.32,0,0,0,0,10.35,8.55,8.55,0,0,1,0,12.06,7.32,7.32,0,0,0,0,10.35,8.53,8.53,0,0,1,0,12.05,7.33,7.33,0,0,0,0,10.36,8.53,8.53,0,0,1,0,12,7.32,7.32,0,0,0,0,10.35,8.55,8.55,0,0,1,0,12.06,7.3,7.3,0,0,0,0,10.35.61.61,0,0,1,0,.85.6.6,0,0,1-.43.18" transform="translate(-2.84 -2.83)"/><path class="cls-6" d="M78.14,109.9a.58.58,0,0,1-.42-.18,8.52,8.52,0,0,1,0-12,7.35,7.35,0,0,0,0-10.36,8.52,8.52,0,0,1,0-12,7.33,7.33,0,0,0,0-10.35,8.53,8.53,0,0,1,0-12.06,7.33,7.33,0,0,0,0-10.35,8.52,8.52,0,0,1,0-12,7.34,7.34,0,0,0,0-10.36,8.52,8.52,0,0,1,0-12,.6.6,0,0,1,.84.85,7.33,7.33,0,0,0,0,10.35,8.53,8.53,0,0,1,0,12.06,7.33,7.33,0,0,0,0,10.35,8.52,8.52,0,0,1,0,12.05,7.35,7.35,0,0,0,0,10.36,8.52,8.52,0,0,1,0,12,7.33,7.33,0,0,0,0,10.35,8.53,8.53,0,0,1,0,12.06,7.33,7.33,0,0,0,0,10.35.59.59,0,0,1,0,.85.58.58,0,0,1-.42.18" transform="translate(-2.84 -2.83)"/><path class="cls-6" d="M83.3,109.9a.59.59,0,0,1-.42-.18,8.53,8.53,0,0,1,0-12,7.35,7.35,0,0,0,0-10.36,8.53,8.53,0,0,1,0-12,7.33,7.33,0,0,0,0-10.35,8.55,8.55,0,0,1,0-12.06,7.33,7.33,0,0,0,0-10.35,8.53,8.53,0,0,1,0-12,7.34,7.34,0,0,0,0-10.36,8.53,8.53,0,0,1,0-12,.6.6,0,1,1,.85.85,7.32,7.32,0,0,0,0,10.35,8.55,8.55,0,0,1,0,12.06,7.32,7.32,0,0,0,0,10.35,8.53,8.53,0,0,1,0,12.05,7.33,7.33,0,0,0,0,10.36,8.53,8.53,0,0,1,0,12,7.32,7.32,0,0,0,0,10.35,8.55,8.55,0,0,1,0,12.06,7.3,7.3,0,0,0,0,10.35.61.61,0,0,1,0,.85.6.6,0,0,1-.43.18" transform="translate(-2.84 -2.83)"/><path class="cls-6" d="M91.12,109.76a.6.6,0,0,1-.43-.18,8.53,8.53,0,0,1,0-12,7.33,7.33,0,0,0,0-10.36,8.53,8.53,0,0,1,0-12,7.32,7.32,0,0,0,0-10.35,8.55,8.55,0,0,1,0-12.06,7.32,7.32,0,0,0,0-10.35,8.53,8.53,0,0,1,0-12,7.32,7.32,0,0,0,0-10.36,8.53,8.53,0,0,1,0-12,.6.6,0,1,1,.85.85,7.33,7.33,0,0,0,0,10.35,8.55,8.55,0,0,1,0,12.06,7.33,7.33,0,0,0,0,10.35,8.53,8.53,0,0,1,0,12.05,7.35,7.35,0,0,0,0,10.36,8.53,8.53,0,0,1,0,12,7.33,7.33,0,0,0,0,10.35,8.55,8.55,0,0,1,0,12.06,7.33,7.33,0,0,0,0,10.35.61.61,0,0,1,0,.85.59.59,0,0,1-.42.18" transform="translate(-2.84 -2.83)"/><path class="cls-6" d="M56.13,110a.58.58,0,0,1-.42-.17,8.53,8.53,0,0,1,0-12,7.34,7.34,0,0,0,0-10.36,8.53,8.53,0,0,1,0-12,7.35,7.35,0,0,0,0-10.36,8.53,8.53,0,0,1,0-12.05,7.33,7.33,0,0,0,0-10.35,8.53,8.53,0,0,1,0-12,7.34,7.34,0,0,0,0-10.36,8.53,8.53,0,0,1,0-12,.59.59,0,0,1,.85,0,.61.61,0,0,1,0,.85,7.32,7.32,0,0,0,0,10.35,8.53,8.53,0,0,1,0,12.05,7.33,7.33,0,0,0,0,10.36,8.53,8.53,0,0,1,0,12.05,7.33,7.33,0,0,0,0,10.36,8.53,8.53,0,0,1,0,12,7.32,7.32,0,0,0,0,10.35,8.55,8.55,0,0,1,0,12.06,7.32,7.32,0,0,0,0,10.35.61.61,0,0,1,0,.85.59.59,0,0,1-.43.17" transform="translate(-2.84 -2.83)"/><path class="cls-6" d="M52.62,110a.58.58,0,0,1-.42-.17,8.53,8.53,0,0,1,0-12,7.32,7.32,0,0,0,0-10.36,8.53,8.53,0,0,1,0-12A7.33,7.33,0,0,0,52.2,65,8.53,8.53,0,0,1,52.2,53a7.32,7.32,0,0,0,0-10.35,8.53,8.53,0,0,1,0-12,7.32,7.32,0,0,0,0-10.36,8.53,8.53,0,0,1,0-12,.59.59,0,0,1,.85,0,.61.61,0,0,1,0,.85,7.32,7.32,0,0,0,0,10.35,8.53,8.53,0,0,1,0,12.05,7.33,7.33,0,0,0,0,10.36,8.53,8.53,0,0,1,0,12.05,7.33,7.33,0,0,0,0,10.36,8.53,8.53,0,0,1,0,12,7.32,7.32,0,0,0,0,10.35,8.55,8.55,0,0,1,0,12.06,7.32,7.32,0,0,0,0,10.35.61.61,0,0,1,0,.85.59.59,0,0,1-.43.17" transform="translate(-2.84 -2.83)"/><path class="cls-6" d="M49.12,110a.59.59,0,0,1-.43-.17,8.53,8.53,0,0,1,0-12,7.32,7.32,0,0,0,0-10.36,8.53,8.53,0,0,1,0-12,7.33,7.33,0,0,0,0-10.36,8.53,8.53,0,0,1,0-12.05,7.32,7.32,0,0,0,0-10.35,8.53,8.53,0,0,1,0-12,7.32,7.32,0,0,0,0-10.36,8.53,8.53,0,0,1,0-12,.59.59,0,0,1,.85,0,.61.61,0,0,1,0,.85,7.33,7.33,0,0,0,0,10.35,8.53,8.53,0,0,1,0,12.05,7.35,7.35,0,0,0,0,10.36,8.53,8.53,0,0,1,0,12.05,7.35,7.35,0,0,0,0,10.36,8.53,8.53,0,0,1,0,12,7.33,7.33,0,0,0,0,10.35,8.55,8.55,0,0,1,0,12.06,7.33,7.33,0,0,0,0,10.35.61.61,0,0,1,0,.85.58.58,0,0,1-.42.17" transform="translate(-2.84 -2.83)"/></g><g class="cls-2"><path class="cls-7" d="M21.43,58.74A46.61,46.61,0,1,0,68,12.14,46.6,46.6,0,0,0,21.43,58.74Z" transform="translate(-2.84 -2.83)"/><path class="cls-8" d="M21.43,58.74A46.61,46.61,0,1,0,68,12.14,46.6,46.6,0,0,0,21.43,58.74Z" transform="translate(-2.84 -2.83)"/><path class="cls-3" d="M44.35,82.65a.6.6,0,0,1-.3-1.12L69.63,66.36a.6.6,0,0,1,.82.21.59.59,0,0,1-.21.82L44.66,82.56a.59.59,0,0,1-.31.09" transform="translate(-2.84 -2.83)"/><path class="cls-9" d="M63.15,45.1a1.09,1.09,0,0,0,.79,1.33L123.33,62c.07-1.09.11-2.19.11-3.3,0,0,0-.05,0-.08L64.48,44.29a1.11,1.11,0,0,0-1.33.81" transform="translate(-2.84 -2.83)"/><path class="cls-3" d="M62.56,45A1.71,1.71,0,0,0,63.78,47l59.5,15.64c0-.41.07-.81.09-1.22L64.09,45.85a.5.5,0,0,1-.36-.61.51.51,0,0,1,.49-.38l.12,0,59.08,14.39c0-.18,0-.35,0-.53s0-.47,0-.7L64.62,43.71A1.72,1.72,0,0,0,62.56,45" transform="translate(-2.84 -2.83)"/><path class="cls-3" d="M72.62,71.44,47.6,87.2a7,7,0,0,1-9.79-2.37.61.61,0,0,0-.83-.21L24,92.33l.75,1L37.1,86a8.22,8.22,0,0,0,11.14,2.26l25-15.76a.59.59,0,0,0,.19-.82.6.6,0,0,0-.83-.19" transform="translate(-2.84 -2.83)"/><path class="cls-6" d="M68,114.65a55.91,55.91,0,1,1,55.91-55.91A56,56,0,0,1,68,114.65M68,3.83a54.91,54.91,0,1,0,54.91,54.91A55,55,0,0,0,68,3.83" transform="translate(-2.84 -2.83)"/></g></g></g></g></svg>