<svg xmlns="http://www.w3.org/2000/svg" xmlns:xlink="http://www.w3.org/1999/xlink" viewBox="0 0 769.54 111.81"><defs><style>.cls-1,.cls-7,.cls-8{fill:none;}.cls-2{clip-path:url(#clip-path);}.cls-3{fill:#242650;}.cls-4{fill:#fdeceb;}.cls-5{clip-path:url(#clip-path-3);}.cls-6{fill:#f4cfce;}.cls-7{stroke:#fce2e1;stroke-miterlimit:10;}.cls-8{stroke:#242650;stroke-linecap:round;stroke-linejoin:round;stroke-width:1.2px;}.cls-9{fill:#fff;}</style><clipPath id="clip-path" transform="translate(-2.83 -2.83)"><rect class="cls-1" width="775.21" height="117.48"/></clipPath><clipPath id="clip-path-3" transform="translate(-2.83 -2.83)"><path class="cls-1" d="M12.14,58.74a46.6,46.6,0,1,0,46.6-46.6,46.6,46.6,0,0,0-46.6,46.6"/></clipPath></defs><title>Asset 1</title><g id="Layer_2" data-name="Layer 2"><g id="Layer_1-2" data-name="Layer 1"><g class="cls-2"><g class="cls-2"><path class="cls-3" d="M173.17,102.39a22.94,22.94,0,0,1-10.92-2.76,15.14,15.14,0,0,1-6.68-7l-.18-.39-1.79,8.49H142.36l18.12-85.66h11.24l-7,33.05.25.12a26.91,26.91,0,0,1,7.33-6.19,24.71,24.71,0,0,1,12.59-3.13,23.67,23.67,0,0,1,8.89,1.66,20,20,0,0,1,7.1,4.82,23.29,23.29,0,0,1,4.67,7.48,26.09,26.09,0,0,1,1.71,9.58A48.53,48.53,0,0,1,204.59,79a39.1,39.1,0,0,1-7.21,12.57,31.21,31.21,0,0,1-10.84,8,32.55,32.55,0,0,1-13.37,2.79m8.77-52.6a19.41,19.41,0,0,0-9,2.09,22.41,22.41,0,0,0-7.14,5.8,28.06,28.06,0,0,0-4.72,8.55,31.22,31.22,0,0,0-1.69,10.28c0,4.83,1.2,8.59,3.57,11.18s5.62,3.85,9.94,3.85a20,20,0,0,0,8.64-1.94,21.42,21.42,0,0,0,7.18-5.51,27.24,27.24,0,0,0,4.89-8.65,33.53,33.53,0,0,0,1.8-11.21c0-4.44-1.18-8-3.51-10.6s-5.61-3.84-10-3.84" transform="translate(-2.83 -2.83)"/><path class="cls-3" d="M237.11,102.39a26.48,26.48,0,0,1-9.64-1.77,24.51,24.51,0,0,1-7.89-5,23.23,23.23,0,0,1-5.34-7.79,25.86,25.86,0,0,1-2-10.19,41.31,41.31,0,0,1,2.95-15.79,36.63,36.63,0,0,1,8.07-12.23,37.57,37.57,0,0,1,11.86-7.89,36.87,36.87,0,0,1,14.34-2.83,26,26,0,0,1,9.76,1.83,23.51,23.51,0,0,1,7.85,5.16,23.94,23.94,0,0,1,5.2,7.89,26.13,26.13,0,0,1,1.9,10.06,42.35,42.35,0,0,1-2.47,14.34,37.09,37.09,0,0,1-7.22,12.28,35.71,35.71,0,0,1-11.69,8.62,36.65,36.65,0,0,1-15.72,3.27m10.4-52.6a20,20,0,0,0-9,2.1,23.9,23.9,0,0,0-7.44,5.81A29.82,29.82,0,0,0,226,66.33a28.67,28.67,0,0,0-1.91,10.41A14.78,14.78,0,0,0,228,87.44c2.61,2.76,6.25,4.1,11.12,4.1a20.08,20.08,0,0,0,9.43-2.27,24.73,24.73,0,0,0,7.5-6,28.34,28.34,0,0,0,4.89-8.62,29.39,29.39,0,0,0,1.75-10,14.74,14.74,0,0,0-4-10.65c-2.65-2.79-6.3-4.15-11.18-4.15" transform="translate(-2.83 -2.83)"/><path class="cls-3" d="M334.35,102.39a14.83,14.83,0,0,1-3.65-.45,9,9,0,0,1-3.33-1.6,8.54,8.54,0,0,1-2.42-3,10.18,10.18,0,0,1-.93-4.58,19.63,19.63,0,0,1,.49-4l5.26-24.2a24.36,24.36,0,0,0,.45-2.64,19.41,19.41,0,0,0,.11-2.16c0-3.42-1-5.88-2.93-7.51s-4.9-2.49-8.59-2.49a15.37,15.37,0,0,0-12.16,5.3A30.12,30.12,0,0,0,300,69l-6.73,31.73H281.91l12.87-60.17h11.35L304.8,47l.25.11a18.48,18.48,0,0,1,6.54-5.63,23.12,23.12,0,0,1,10.49-2.51,21.86,21.86,0,0,1,7.5,1.29,18.29,18.29,0,0,1,6.28,3.8,18,18,0,0,1,4.24,6.09,21.06,21.06,0,0,1,1.55,8.27,30.85,30.85,0,0,1-.73,6.43l-5.62,26,0,.06a.77.77,0,0,0,.54.34.6.6,0,0,0,.36-.15l5.84-4.32,6.18,8.69-5.42,4a13.67,13.67,0,0,1-8.49,2.91" transform="translate(-2.83 -2.83)"/><path class="cls-3" d="M364.93,42.39V22.52h11V42.39h16.83V52H375.91V86.79c0,2.34.94,3.28,3,3.28h10.52v9.58h-15c-5.61,0-9.58-4-9.58-9.82V52H349V42.39Z" transform="translate(-2.83 -2.83)"/><path class="cls-3" d="M429.56,40.75c15.43,0,25.36,9,25.36,22.79V99.65H444.17v-9h-1.64c-2.45,5.14-8.41,10.64-20.21,10.64-12.86,0-21.16-7-21.16-17.3S408.29,68,423,66.58l21.15-2V63.07c0-7.83-5.5-12.5-14.85-12.5s-14.83,4.55-17.52,11.22l-9.47-4.33c4.09-8.88,13.21-16.71,27.23-16.71m-5.37,51.42c13.43,0,20-8.06,20-18v-.93l-20,1.87c-6.67.58-11.93,2.57-11.93,8.41,0,5.38,4.33,8.65,11.93,8.65" transform="translate(-2.83 -2.83)"/><polygon class="cls-3" points="498.49 61.64 524.32 96.82 511.11 96.82 490.54 68.42 478.74 78.23 478.74 96.82 467.75 96.82 467.75 15.01 478.74 15.01 478.74 63.74 480.14 63.74 508.66 39.55 524.79 39.55 498.49 61.64"/><path class="cls-3" d="M557.55,40.52c16.83,0,28.05,12.38,28.05,29V75H540.49c.7,10.29,7.94,16.71,18.23,16.71,8.41,0,13.32-4.2,16.36-10.28l9.23,5.26c-4.32,7-11.69,14.61-25.36,14.61-17.76,0-29.91-13.44-29.91-30.74,0-16.83,11.91-30,28.51-30m16.59,25.59c-.23-9.82-6.54-16-16.59-16s-16.25,5.84-17.06,16Z" transform="translate(-2.83 -2.83)"/><path class="cls-3" d="M623.47,40.75c16.83,0,29.45,12.51,29.45,30.27s-12.62,30.27-29.45,30.27S594,88.78,594,71s12.62-30.27,29.45-30.27m0,50.49c11,0,18.46-7.6,18.46-20.22S634.45,50.8,623.47,50.8,605,58.4,605,71s7.48,20.22,18.47,20.22" transform="translate(-2.83 -2.83)"/><path class="cls-3" d="M708.09,99.65V90h-1.64c-2.68,5.38-7.94,10.64-19.28,10.64-12,0-22.32-8-22.32-23.73V42.39h11V75.93c0,9.93,5.37,15.07,14.72,15.07,10.64,0,17.3-6.78,17.3-18.7V42.39h11V99.65Z" transform="translate(-2.83 -2.83)"/><path class="cls-3" d="M744.56,42.39V22.52h11V42.39h16.83V52H755.55V86.79c0,2.34.94,3.28,3,3.28H769.1v9.58h-15c-5.61,0-9.59-4-9.59-9.82V52H728.67V42.39Z" transform="translate(-2.83 -2.83)"/><path class="cls-4" d="M3.33,58.74A55.41,55.41,0,1,0,58.74,3.33,55.41,55.41,0,0,0,3.33,58.74" transform="translate(-2.83 -2.83)"/><path class="cls-3" d="M32,77.55a.6.6,0,0,1-.52-.3.59.59,0,0,1,.21-.82L57.31,61.26a.6.6,0,1,1,.62,1L32.34,77.46a.55.55,0,0,1-.3.09" transform="translate(-2.83 -2.83)"/><path class="cls-3" d="M54.26,56.08,28.43,70.48a8.23,8.23,0,0,0-3.36,10.86L12.29,88.92c.21.34.43.67.65,1l13.24-7.85a.59.59,0,0,0,.28-.36.62.62,0,0,0-.07-.46A7,7,0,0,1,29,71.53l25.83-14.4a.6.6,0,1,0-.59-1.05" transform="translate(-2.83 -2.83)"/><path class="cls-3" d="M61.22,36.93l45.32-5.15c-.21-.38-.42-.76-.65-1.13l-44.8,5.08a1.71,1.71,0,0,0,.19,3.4h.16l46.64-4.44c-.19-.39-.39-.77-.59-1.15l-46.16,4.4a.51.51,0,0,1-.55-.45.5.5,0,0,1,.44-.55" transform="translate(-2.83 -2.83)"/></g><g class="cls-5"><path class="cls-6" d="M50.35,109.76a.58.58,0,0,1-.42-.18,8.52,8.52,0,0,1,0-12,7.35,7.35,0,0,0,0-10.36,8.52,8.52,0,0,1,0-12,7.33,7.33,0,0,0,0-10.35,8.53,8.53,0,0,1,0-12.06,7.33,7.33,0,0,0,0-10.35,8.52,8.52,0,0,1,0-12,7.34,7.34,0,0,0,0-10.36,8.52,8.52,0,0,1,0-12,.6.6,0,1,1,.84.85,7.33,7.33,0,0,0,0,10.35,8.53,8.53,0,0,1,0,12.06,7.33,7.33,0,0,0,0,10.35,8.52,8.52,0,0,1,0,12.05,7.35,7.35,0,0,0,0,10.36,8.52,8.52,0,0,1,0,12,7.33,7.33,0,0,0,0,10.35,8.53,8.53,0,0,1,0,12.06,7.33,7.33,0,0,0,0,10.35.59.59,0,0,1,0,.85.58.58,0,0,1-.42.18" transform="translate(-2.83 -2.83)"/><path class="cls-6" d="M53.86,109.76a.6.6,0,0,1-.43-.18,8.53,8.53,0,0,1,0-12,7.33,7.33,0,0,0,0-10.36,8.53,8.53,0,0,1,0-12,7.32,7.32,0,0,0,0-10.35,8.55,8.55,0,0,1,0-12.06,7.32,7.32,0,0,0,0-10.35,8.53,8.53,0,0,1,0-12,7.32,7.32,0,0,0,0-10.36,8.53,8.53,0,0,1,0-12,.61.61,0,0,1,.85,0,.59.59,0,0,1,0,.85,7.33,7.33,0,0,0,0,10.35,8.55,8.55,0,0,1,0,12.06,7.33,7.33,0,0,0,0,10.35,8.53,8.53,0,0,1,0,12.05,7.35,7.35,0,0,0,0,10.36,8.53,8.53,0,0,1,0,12,7.33,7.33,0,0,0,0,10.35,8.55,8.55,0,0,1,0,12.06,7.33,7.33,0,0,0,0,10.35.61.61,0,0,1-.42,1" transform="translate(-2.83 -2.83)"/><path class="cls-6" d="M57.37,109.76a.6.6,0,0,1-.43-.18,8.53,8.53,0,0,1,0-12,7.33,7.33,0,0,0,0-10.36,8.53,8.53,0,0,1,0-12,7.32,7.32,0,0,0,0-10.35,8.55,8.55,0,0,1,0-12.06,7.32,7.32,0,0,0,0-10.35,8.53,8.53,0,0,1,0-12,7.32,7.32,0,0,0,0-10.36,8.53,8.53,0,0,1,0-12,.6.6,0,0,1,.85.85,7.33,7.33,0,0,0,0,10.35,8.55,8.55,0,0,1,0,12.06,7.33,7.33,0,0,0,0,10.35,8.53,8.53,0,0,1,0,12.05,7.35,7.35,0,0,0,0,10.36,8.53,8.53,0,0,1,0,12,7.33,7.33,0,0,0,0,10.35,8.55,8.55,0,0,1,0,12.06,7.33,7.33,0,0,0,0,10.35.61.61,0,0,1,0,.85.59.59,0,0,1-.42.18" transform="translate(-2.83 -2.83)"/><path class="cls-6" d="M60.87,109.76a.59.59,0,0,1-.42-.18,8.53,8.53,0,0,1,0-12,7.33,7.33,0,0,0,0-10.36,8.53,8.53,0,0,1,0-12,7.32,7.32,0,0,0,0-10.35,8.55,8.55,0,0,1,0-12.06,7.32,7.32,0,0,0,0-10.35,8.53,8.53,0,0,1,0-12,7.32,7.32,0,0,0,0-10.36,8.53,8.53,0,0,1,0-12,.6.6,0,1,1,.85.85,7.32,7.32,0,0,0,0,10.35,8.55,8.55,0,0,1,0,12.06,7.32,7.32,0,0,0,0,10.35,8.53,8.53,0,0,1,0,12.05,7.33,7.33,0,0,0,0,10.36,8.53,8.53,0,0,1,0,12,7.32,7.32,0,0,0,0,10.35,8.55,8.55,0,0,1,0,12.06,7.32,7.32,0,0,0,0,10.35.61.61,0,0,1,0,.85.6.6,0,0,1-.43.18" transform="translate(-2.83 -2.83)"/><path class="cls-6" d="M64.38,109.9a.59.59,0,0,1-.42-.18,8.53,8.53,0,0,1,0-12,7.35,7.35,0,0,0,0-10.36,8.53,8.53,0,0,1,0-12,7.33,7.33,0,0,0,0-10.35,8.55,8.55,0,0,1,0-12.06A7.33,7.33,0,0,0,64,42.5a8.53,8.53,0,0,1,0-12,7.34,7.34,0,0,0,0-10.36A8.53,8.53,0,0,1,64,8a.6.6,0,1,1,.85.85,7.32,7.32,0,0,0,0,10.35,8.55,8.55,0,0,1,0,12.06,7.32,7.32,0,0,0,0,10.35,8.53,8.53,0,0,1,0,12.05,7.33,7.33,0,0,0,0,10.36,8.53,8.53,0,0,1,0,12,7.32,7.32,0,0,0,0,10.35,8.55,8.55,0,0,1,0,12.06,7.3,7.3,0,0,0,0,10.35.61.61,0,0,1,0,.85.6.6,0,0,1-.43.18" transform="translate(-2.83 -2.83)"/><path class="cls-6" d="M68.85,109.9a.61.61,0,0,1-.43-.18,8.53,8.53,0,0,1,0-12,7.33,7.33,0,0,0,0-10.36,8.53,8.53,0,0,1,0-12,7.32,7.32,0,0,0,0-10.35,8.55,8.55,0,0,1,0-12.06,7.32,7.32,0,0,0,0-10.35,8.53,8.53,0,0,1,0-12,7.32,7.32,0,0,0,0-10.36,8.53,8.53,0,0,1,0-12,.61.61,0,0,1,.85,0,.59.59,0,0,1,0,.85,7.33,7.33,0,0,0,0,10.35,8.53,8.53,0,0,1,0,12.06,7.33,7.33,0,0,0,0,10.35,8.52,8.52,0,0,1,0,12.05,7.35,7.35,0,0,0,0,10.36,8.52,8.52,0,0,1,0,12,7.33,7.33,0,0,0,0,10.35,8.53,8.53,0,0,1,0,12.06,7.33,7.33,0,0,0,0,10.35.59.59,0,0,1,0,.85.58.58,0,0,1-.42.18" transform="translate(-2.83 -2.83)"/><path class="cls-6" d="M74,109.9a.58.58,0,0,1-.42-.18,8.52,8.52,0,0,1,0-12,7.35,7.35,0,0,0,0-10.36,8.52,8.52,0,0,1,0-12,7.33,7.33,0,0,0,0-10.35,8.53,8.53,0,0,1,0-12.06,7.33,7.33,0,0,0,0-10.35,8.52,8.52,0,0,1,0-12,7.34,7.34,0,0,0,0-10.36,8.52,8.52,0,0,1,0-12,.6.6,0,1,1,.85.85,7.32,7.32,0,0,0,0,10.35,8.55,8.55,0,0,1,0,12.06,7.32,7.32,0,0,0,0,10.35,8.53,8.53,0,0,1,0,12.05,7.33,7.33,0,0,0,0,10.36,8.53,8.53,0,0,1,0,12,7.32,7.32,0,0,0,0,10.35,8.55,8.55,0,0,1,0,12.06,7.3,7.3,0,0,0,0,10.35.61.61,0,0,1-.43,1" transform="translate(-2.83 -2.83)"/><path class="cls-6" d="M81.82,109.76a.59.59,0,0,1-.42-.18,8.53,8.53,0,0,1,0-12,7.33,7.33,0,0,0,0-10.36,8.53,8.53,0,0,1,0-12,7.32,7.32,0,0,0,0-10.35,8.55,8.55,0,0,1,0-12.06,7.32,7.32,0,0,0,0-10.35,8.53,8.53,0,0,1,0-12A7.32,7.32,0,0,0,81.4,20a8.53,8.53,0,0,1,0-12,.6.6,0,1,1,.85.85,7.32,7.32,0,0,0,0,10.35,8.55,8.55,0,0,1,0,12.06,7.32,7.32,0,0,0,0,10.35,8.53,8.53,0,0,1,0,12.05,7.33,7.33,0,0,0,0,10.36,8.53,8.53,0,0,1,0,12,7.32,7.32,0,0,0,0,10.35,8.55,8.55,0,0,1,0,12.06,7.32,7.32,0,0,0,0,10.35.61.61,0,0,1,0,.85.6.6,0,0,1-.43.18" transform="translate(-2.83 -2.83)"/><path class="cls-6" d="M46.84,110a.57.57,0,0,1-.42-.17,8.52,8.52,0,0,1,0-12,7.34,7.34,0,0,0,0-10.36,8.52,8.52,0,0,1,0-12,7.35,7.35,0,0,0,0-10.36,8.52,8.52,0,0,1,0-12.05,7.33,7.33,0,0,0,0-10.35,8.52,8.52,0,0,1,0-12,7.34,7.34,0,0,0,0-10.36,8.52,8.52,0,0,1,0-12,.59.59,0,0,1,.85,0,.61.61,0,0,1,0,.85,7.32,7.32,0,0,0,0,10.35,8.53,8.53,0,0,1,0,12.05,7.33,7.33,0,0,0,0,10.36,8.53,8.53,0,0,1,0,12.05,7.33,7.33,0,0,0,0,10.36,8.53,8.53,0,0,1,0,12,7.32,7.32,0,0,0,0,10.35,8.55,8.55,0,0,1,0,12.06,7.32,7.32,0,0,0,0,10.35.6.6,0,0,1-.43,1" transform="translate(-2.83 -2.83)"/><path class="cls-6" d="M43.33,110a.58.58,0,0,1-.42-.17,8.53,8.53,0,0,1,0-12,7.34,7.34,0,0,0,0-10.36,8.53,8.53,0,0,1,0-12,7.35,7.35,0,0,0,0-10.36,8.53,8.53,0,0,1,0-12.05,7.33,7.33,0,0,0,0-10.35,8.53,8.53,0,0,1,0-12,7.34,7.34,0,0,0,0-10.36,8.53,8.53,0,0,1,0-12,.59.59,0,0,1,.85,0,.61.61,0,0,1,0,.85,7.32,7.32,0,0,0,0,10.35,8.53,8.53,0,0,1,0,12.05,7.33,7.33,0,0,0,0,10.36,8.53,8.53,0,0,1,0,12.05,7.33,7.33,0,0,0,0,10.36,8.53,8.53,0,0,1,0,12,7.32,7.32,0,0,0,0,10.35,8.55,8.55,0,0,1,0,12.06,7.32,7.32,0,0,0,0,10.35.61.61,0,0,1,0,.85.59.59,0,0,1-.43.17" transform="translate(-2.83 -2.83)"/><path class="cls-6" d="M39.82,110a.58.58,0,0,1-.42-.17,8.53,8.53,0,0,1,0-12,7.32,7.32,0,0,0,0-10.36,8.53,8.53,0,0,1,0-12A7.33,7.33,0,0,0,39.4,65,8.53,8.53,0,0,1,39.4,53a7.32,7.32,0,0,0,0-10.35,8.53,8.53,0,0,1,0-12,7.32,7.32,0,0,0,0-10.36,8.53,8.53,0,0,1,0-12,.59.59,0,0,1,.85,0,.61.61,0,0,1,0,.85,7.32,7.32,0,0,0,0,10.35,8.53,8.53,0,0,1,0,12.05,7.33,7.33,0,0,0,0,10.36,8.53,8.53,0,0,1,0,12.05,7.33,7.33,0,0,0,0,10.36,8.53,8.53,0,0,1,0,12,7.32,7.32,0,0,0,0,10.35,8.55,8.55,0,0,1,0,12.06,7.32,7.32,0,0,0,0,10.35.61.61,0,0,1,0,.85.59.59,0,0,1-.43.17" transform="translate(-2.83 -2.83)"/></g><g class="cls-2"><path class="cls-7" d="M12.14,58.74a46.6,46.6,0,1,0,46.6-46.6A46.6,46.6,0,0,0,12.14,58.74Z" transform="translate(-2.83 -2.83)"/><path class="cls-8" d="M12.14,58.74a46.6,46.6,0,1,0,46.6-46.6A46.6,46.6,0,0,0,12.14,58.74Z" transform="translate(-2.83 -2.83)"/><path class="cls-3" d="M35.06,82.65a.63.63,0,0,1-.52-.3.6.6,0,0,1,.21-.82L60.34,66.36a.6.6,0,0,1,.82.21.59.59,0,0,1-.21.82L35.37,82.56a.61.61,0,0,1-.31.09" transform="translate(-2.83 -2.83)"/><path class="cls-9" d="M53.86,45.1a1.09,1.09,0,0,0,.78,1.33L114,62c.06-1.09.1-2.19.1-3.3v-.08L55.19,44.29a1.1,1.1,0,0,0-1.33.81" transform="translate(-2.83 -2.83)"/><path class="cls-3" d="M53.27,45A1.7,1.7,0,0,0,54.49,47L114,62.65c0-.41.07-.81.09-1.22L54.8,45.85a.5.5,0,0,1,.12-1l.12,0,59.09,14.39c0-.17,0-.35,0-.53s0-.47,0-.7L55.33,43.71A1.72,1.72,0,0,0,53.27,45" transform="translate(-2.83 -2.83)"/><path class="cls-3" d="M63.33,71.44l-25,15.76a7,7,0,0,1-9.8-2.37.6.6,0,0,0-.82-.21l-13,7.71.75,1L27.81,86A8.22,8.22,0,0,0,39,88.21L64,72.45a.59.59,0,0,0,.19-.82.6.6,0,0,0-.83-.19" transform="translate(-2.83 -2.83)"/><path class="cls-6" d="M58.74,114.65a55.91,55.91,0,1,1,55.9-55.91,56,56,0,0,1-55.9,55.91m0-110.82a54.91,54.91,0,1,0,54.9,54.91A55,55,0,0,0,58.74,3.83" transform="translate(-2.83 -2.83)"/></g></g></g></g></svg>